<svg width="54" height="54" viewBox="0 0 54 54" fill="none" xmlns="http://www.w3.org/2000/svg">
<g clip-path="url(#clip0)">
<path d="M25.7725 2.56093C25.7725 2.56093 23.5533 2.36084 21.6554 3.17879C20.7676 1.31258 18.9669 0 18.9669 0C18.9669 0 17.1661 1.31232 16.2782 3.17879C14.3799 2.36071 12.161 2.56093 12.161 2.56093C12.161 2.56093 11.2991 6.39002 13.1787 8.53371C15.0581 10.6774 18.9668 10.3235 18.9668 10.3235C18.9668 10.3235 22.8759 10.6774 24.7551 8.53371C26.6345 6.38989 25.7725 2.56093 25.7725 2.56093Z" fill="#659D1F"/>
<path opacity="0.3" d="M18.9669 0C18.9669 0 17.1661 1.31232 16.2782 3.17879C14.3799 2.36071 12.161 2.56093 12.161 2.56093C12.161 2.56093 11.2991 6.39002 13.1787 8.53371C15.0581 10.6774 18.9668 10.3235 18.9668 10.3235L18.9669 0Z" fill="#218649"/>
<path d="M18.9667 45.2323C27.8832 45.2323 35.1119 29.2721 35.1119 21.8247C35.1122 14.377 27.8835 9.30048 18.9667 9.30048C10.0498 9.30048 2.82141 14.377 2.82141 21.8245C2.82115 29.2721 10.0498 45.2323 18.9667 45.2323Z" fill="#FF5959"/>
<path opacity="0.3" d="M3.59985 26.9486C5.69391 34.8702 11.7817 45.2322 18.9666 45.2322C26.1514 45.2322 32.2392 34.8698 34.3334 26.9486H3.59985Z" fill="#222222"/>
<path d="M18.0278 12.9907C18.0277 12.4718 18.4482 12.0513 18.9669 12.0513C19.4859 12.0515 19.9067 12.4717 19.9064 12.9908C19.9067 13.5097 19.486 14.6766 18.9669 14.6766C18.4481 14.6766 18.0276 13.5098 18.0278 12.9907Z" fill="#FEDD3D"/>
<path d="M18.0276 24.5608C18.0276 24.042 18.4481 23.6212 18.9671 23.6212C19.4861 23.6212 19.9066 24.042 19.9066 24.5608C19.9066 25.0796 19.4859 26.2469 18.9671 26.2466C18.4482 26.2466 18.0275 25.0797 18.0276 24.5608Z" fill="#FEDD3D"/>
<path d="M18.0276 39.1506C18.0276 38.6316 18.448 38.2111 18.9671 38.2111C19.4855 38.2111 19.9066 38.6316 19.9066 39.1506C19.9066 39.6697 19.4859 40.8364 18.9671 40.8364C18.4482 40.8365 18.0276 39.6697 18.0276 39.1506Z" fill="#FEDD3D"/>
<path d="M16.3501 18.6958C16.3499 18.1769 15.9294 17.7564 15.4103 17.7562C14.8916 17.7562 14.4708 18.1771 14.4708 18.6959C14.4708 19.2148 14.8917 20.3815 15.4103 20.3815C15.9293 20.3816 16.3501 19.2149 16.3501 18.6958Z" fill="#FEDD3D"/>
<path d="M12.9032 13.6715C12.9032 13.1527 12.4825 12.7321 11.9637 12.7322C11.4449 12.7321 11.0242 13.1529 11.0242 13.6713C11.0242 14.1905 11.4447 15.3575 11.9637 15.3574C12.4826 15.3575 12.9032 14.1906 12.9032 13.6715Z" fill="#FEDD3D"/>
<path d="M11.9638 24.5608C11.9637 24.0421 11.5432 23.6216 11.0243 23.6215C10.5052 23.6215 10.0846 24.0421 10.0846 24.5608C10.0849 25.0797 10.5052 26.2464 11.0243 26.2464C11.5429 26.2464 11.964 25.0797 11.9638 24.5608Z" fill="#FEDD3D"/>
<path d="M13.7057 36.1134C13.7054 35.5947 13.285 35.174 12.766 35.1738C12.2473 35.1738 11.8265 35.5946 11.8264 36.1134C11.8267 36.6326 12.2471 37.799 12.7659 37.799C13.2849 37.799 13.7054 36.6323 13.7057 36.1134Z" fill="#FEDD3D"/>
<path d="M8.95882 18.6958C8.95895 18.1769 8.53818 17.7565 8.01933 17.7563C7.5006 17.7563 7.07983 18.1769 7.07983 18.6958C7.07983 19.2149 7.50047 20.3816 8.01933 20.3816C8.53831 20.3816 8.95895 19.2149 8.95882 18.6958Z" fill="#FEDD3D"/>
<path d="M16.3499 30.5219C16.3501 30.0032 15.9294 29.5825 15.4103 29.5824C14.8918 29.5824 14.4708 30.003 14.4708 30.5219C14.4708 31.041 14.8915 32.2077 15.4102 32.2079C15.9294 32.2081 16.3499 31.041 16.3499 30.5219Z" fill="#FEDD3D"/>
<path d="M8.95882 30.5219C8.95895 30.0032 8.53818 29.5824 8.01933 29.5825C7.50047 29.5825 7.07983 30.0032 7.07983 30.5219C7.07996 31.041 7.50047 32.2079 8.01933 32.2081C8.53805 32.2081 8.95895 31.0411 8.95882 30.5219Z" fill="#FEDD3D"/>
<path d="M21.5841 18.6958C21.5841 18.1768 22.0049 17.7561 22.5237 17.7564C23.0423 17.7563 23.4634 18.1768 23.4634 18.6958C23.4634 19.2148 23.0425 20.3816 22.5237 20.3816C22.0047 20.3816 21.5841 19.2149 21.5841 18.6958Z" fill="#FEDD3D"/>
<path d="M25.0308 13.6716C25.0309 13.1528 25.4515 12.7322 25.9703 12.7321C26.4891 12.7322 26.9099 13.1529 26.9099 13.6716C26.9097 14.1905 26.4894 15.3574 25.9703 15.3574C25.4517 15.3575 25.0308 14.1907 25.0308 13.6716Z" fill="#FEDD3D"/>
<path d="M25.9703 24.5608C25.9703 24.0421 26.3912 23.6216 26.9098 23.6212C27.4289 23.6216 27.8494 24.042 27.8494 24.5608C27.8494 25.0797 27.4289 26.2464 26.9098 26.2464C26.3911 26.2464 25.9703 25.0796 25.9703 24.5608Z" fill="#FEDD3D"/>
<path d="M24.2285 36.1135C24.2288 35.5947 24.6493 35.174 25.1683 35.1737C25.6873 35.1738 26.108 35.5946 26.1078 36.1135C26.1078 36.6324 25.6873 37.7992 25.1683 37.799C24.6493 37.799 24.2288 36.6324 24.2285 36.1135Z" fill="#FEDD3D"/>
<path d="M28.9751 18.6958C28.9751 18.1769 29.3957 17.7564 29.9148 17.7564C30.4337 17.7564 30.8543 18.1769 30.8542 18.6958C30.8543 19.2149 30.4334 20.3816 29.9148 20.3816C29.3961 20.3816 28.9752 19.2149 28.9751 18.6958Z" fill="#FEDD3D"/>
<path d="M21.5841 30.5221C21.5841 30.0031 22.0049 29.5824 22.5237 29.5826C23.0423 29.5825 23.4634 30.003 23.4634 30.5221C23.4635 31.041 23.0422 32.2081 22.5237 32.2081C22.0047 32.2079 21.5841 31.041 21.5841 30.5221Z" fill="#FEDD3D"/>
<path d="M28.9751 30.5219C28.9751 30.0031 29.3957 29.5825 29.9147 29.5826C30.4336 29.5824 30.8543 30.003 30.8542 30.5219C30.8543 31.041 30.4337 32.2079 29.9148 32.2079C29.3959 32.2081 28.9751 31.041 28.9751 30.5219Z" fill="#FEDD3D"/>
<path opacity="0.3" d="M34.569 18.4141C33.5245 18.2036 32.4802 18.0947 31.4493 18.0947C27.8237 18.0947 24.5928 19.4091 22.1061 21.8959C19.1021 24.8996 16.1078 30.7471 14.6549 36.4463C14.0174 38.9469 13.7005 41.2782 13.6962 43.3965C15.3481 44.5471 17.121 45.2324 18.9668 45.2324C27.8834 45.2324 35.112 29.2721 35.112 21.8247C35.1119 20.6219 34.9226 19.4817 34.569 18.4141Z" fill="#222222"/>
<path d="M12.4095 33.4462C12.4095 33.4462 10.3481 34.7325 9.23627 36.6921C7.23614 35.6539 4.8073 35.6979 4.8073 35.6979C4.8073 35.6979 4.10542 38.0236 4.56149 40.2306C2.37299 40.7682 0.575684 42.4027 0.575684 42.4027C0.575684 42.4027 2.34576 46.2984 5.39038 46.9257C8.43461 47.5524 11.6 44.673 11.6 44.673C11.6 44.673 15.2311 42.4087 15.4543 39.3085C15.6779 36.2084 12.4095 33.4462 12.4095 33.4462Z" fill="#669D1F"/>
<path opacity="0.3" d="M4.80608 35.6979C4.80608 35.6979 4.1042 38.0235 4.56026 40.2305C2.37177 40.7681 0.574463 42.4026 0.574463 42.4026C0.574463 42.4026 2.34454 46.2984 5.38916 46.9256C8.43338 47.5524 11.5988 44.6729 11.5988 44.6729L4.80608 35.6979Z" fill="#218649"/>
<path d="M53.4254 25.9726C53.4254 25.9726 51.9978 24.2617 50.0774 23.4982C50.7693 21.5507 50.4239 19.3493 50.4239 19.3493C50.4239 19.3493 48.2228 19.0041 46.2751 19.6958C45.5114 17.7751 43.8006 16.3477 43.8006 16.3477C43.8006 16.3477 40.4836 18.4459 40.2969 21.2905C40.1102 24.1352 43.1242 26.649 43.1242 26.649C43.1242 26.649 45.6381 29.6634 48.4827 29.4764C51.3275 29.2895 53.4254 25.9726 53.4254 25.9726Z" fill="#659D1F"/>
<path opacity="0.3" d="M50.4239 19.3493C50.4239 19.3493 48.2228 19.0041 46.2752 19.6958C45.5114 17.7751 43.8006 16.3477 43.8006 16.3477C43.8006 16.3477 40.4836 18.4459 40.2969 21.2905C40.1102 24.1352 43.1242 26.649 43.1242 26.649L50.4239 19.3493Z" fill="#218649"/>
<path d="M18.4397 51.3333C24.7447 57.6382 41.1418 51.4641 46.408 46.1979C51.6745 40.9317 50.1524 32.2304 43.8475 25.9255C37.5424 19.6204 28.8414 18.0987 23.5752 23.3649C18.3089 28.6311 12.1347 45.0282 18.4397 51.3333Z" fill="#FF5959"/>
<path opacity="0.3" d="M20.5024 27.5387C16.3816 34.6208 13.3593 46.2528 18.4397 51.3333C23.5202 56.4137 35.1523 53.3911 42.2343 49.2706L20.5024 27.5387Z" fill="#222222"/>
<path d="M40.5743 27.871C40.9411 27.5042 41.5358 27.5042 41.9026 27.8709C42.2693 28.238 42.2696 28.8328 41.9026 29.1995C41.5358 29.5666 40.413 30.0943 40.0462 29.7273C39.6792 29.3606 40.2071 28.2381 40.5743 27.871Z" fill="#FEDD3D"/>
<path d="M32.3929 36.0523C32.7598 35.6855 33.3547 35.6855 33.7214 36.0523C34.0884 36.4191 34.0884 37.0141 33.7215 37.3809C33.3547 37.7478 32.2318 38.2756 31.8649 37.9088C31.4982 37.5418 32.0257 36.4192 32.3929 36.0523Z" fill="#FEDD3D"/>
<path d="M22.0762 46.3689C22.4432 46.0019 23.038 46.002 23.405 46.3687C23.7717 46.7355 23.7718 47.3306 23.405 47.6975C23.0379 48.0644 21.9152 48.5921 21.5484 48.2252C21.1814 47.8585 21.7093 46.7359 22.0762 46.3689Z" fill="#FEDD3D"/>
<path d="M35.3537 30.7189C35.7205 30.352 35.7205 29.7572 35.3537 29.3901C34.987 29.0234 34.3916 29.0234 34.0249 29.3901C33.658 29.757 33.1306 30.8798 33.4972 31.2464C33.8643 31.6136 34.9868 31.0859 35.3537 30.7189Z" fill="#FEDD3D"/>
<path d="M36.4692 24.729C36.8361 24.3623 36.8359 23.7673 36.4691 23.4005C36.1023 23.0335 35.5073 23.0335 35.1405 23.4002C34.7735 23.7673 34.2457 24.89 34.6128 25.2568C34.9795 25.6236 36.1021 25.0959 36.4692 24.729Z" fill="#FEDD3D"/>
<path d="M28.105 31.7645C28.4717 31.3978 28.4717 30.8029 28.105 30.436C27.7379 30.0691 27.143 30.0691 26.7762 30.4358C26.4094 30.8029 25.8817 31.9251 26.2488 32.2921C26.6155 32.6588 27.738 32.1316 28.105 31.7645Z" fill="#FEDD3D"/>
<path d="M21.1677 41.1651C21.5344 40.7983 21.5344 40.2032 21.1677 39.8364C20.8009 39.4696 20.2058 39.4696 19.839 39.8364C19.472 40.2036 18.9445 41.3259 19.3113 41.6926C19.6781 42.0596 20.8005 41.532 21.1677 41.1651Z" fill="#FEDD3D"/>
<path d="M30.1274 25.4925C30.4942 25.1258 30.4942 24.5308 30.1274 24.1639C29.7605 23.797 29.1655 23.797 28.7988 24.1639C28.4318 24.5308 27.9042 25.6533 28.2709 26.0203C28.6379 26.3871 29.7605 25.8597 30.1274 25.4925Z" fill="#FEDD3D"/>
<path d="M26.9913 39.0812C27.3582 38.7144 27.3582 38.1196 26.9912 37.7526C26.6246 37.3859 26.0296 37.3856 25.6626 37.7526C25.2956 38.1194 24.7682 39.2422 25.1348 39.609C25.5017 39.976 26.6244 39.4482 26.9913 39.0812Z" fill="#FEDD3D"/>
<path d="M21.7652 33.855C22.1322 33.4882 22.1319 32.8931 21.7651 32.5263C21.3981 32.1595 20.8032 32.1595 20.4365 32.5263C20.0695 32.8934 19.5418 34.0159 19.9085 34.3827C20.2752 34.7496 21.398 34.2221 21.7652 33.855Z" fill="#FEDD3D"/>
<path d="M39.0546 34.4201C39.4216 34.0531 40.0165 34.0531 40.3834 34.4202C40.7501 34.7868 40.7503 35.382 40.3834 35.7488C40.0165 36.1157 38.8939 36.6432 38.527 36.2765C38.1601 35.9093 38.6878 34.7869 39.0546 34.4201Z" fill="#FEDD3D"/>
<path d="M45.0446 33.3045C45.4115 32.9378 46.0064 32.9379 46.3734 33.3045C46.7402 33.6716 46.7402 34.2665 46.3734 34.6334C46.0064 35.0001 44.8839 35.5279 44.5168 35.1611C44.1501 34.7944 44.6775 33.6715 45.0446 33.3045Z" fill="#FEDD3D"/>
<path d="M38.0091 41.6686C38.3758 41.3019 38.971 41.302 39.3378 41.6686C39.7045 42.0358 39.7045 42.6306 39.3378 42.9975C38.971 43.3642 37.8485 43.8919 37.4815 43.5249C37.1148 43.1582 37.6423 42.0356 38.0091 41.6686Z" fill="#FEDD3D"/>
<path d="M28.6085 48.6061C28.9756 48.2393 29.5705 48.2393 29.9375 48.6061C30.3043 48.973 30.3043 49.568 29.9372 49.9348C29.5702 50.3017 28.4479 50.8294 28.081 50.4623C27.7143 50.0956 28.2417 48.9731 28.6085 48.6061Z" fill="#FEDD3D"/>
<path d="M44.2813 39.6463C44.6481 39.2794 45.2429 39.2796 45.6099 39.6465C45.9767 40.0133 45.9767 40.6082 45.6099 40.9749C45.2429 41.342 44.1203 41.8695 43.7536 41.5028C43.3867 41.1358 43.9142 40.0133 44.2813 39.6463Z" fill="#FEDD3D"/>
<path d="M30.6924 42.7824C31.0593 42.4154 31.6543 42.4154 32.021 42.7825C32.3879 43.1492 32.3881 43.7443 32.0211 44.1111C31.6543 44.4781 30.5312 45.0056 30.1645 44.639C29.7977 44.2719 30.3255 43.1494 30.6924 42.7824Z" fill="#FEDD3D"/>
<path d="M35.9187 48.0086C36.2857 47.6417 36.8805 47.6419 37.2472 48.0087C37.6143 48.3755 37.6143 48.9705 37.2472 49.3372C36.8805 49.7043 35.7578 50.2321 35.391 49.8652C35.0239 49.4982 35.5517 48.3755 35.9187 48.0086Z" fill="#FEDD3D"/>
</g>
<defs>
<clipPath id="clip0">
<rect width="54" height="54" fill="white"/>
</clipPath>
</defs>
</svg>
